<svg width="22" height="27" viewBox="0 0 22 27" fill="none" xmlns="http://www.w3.org/2000/svg">
<g filter="url(#filter0_d_401_1270)">
<path d="M10.2969 18.3984C10.6133 18.8906 11.3516 18.8906 11.668 18.3984C16.8008 11.0156 17.75 10.2422 17.75 7.5C17.75 3.77344 14.7266 0.75 11 0.75C7.23828 0.75 4.25 3.77344 4.25 7.5C4.25 10.2422 5.16406 11.0156 10.2969 18.3984ZM11 10.3125C9.41797 10.3125 8.1875 9.08203 8.1875 7.5C8.1875 5.95312 9.41797 4.6875 11 4.6875C12.5469 4.6875 13.8125 5.95312 13.8125 7.5C13.8125 9.08203 12.5469 10.3125 11 10.3125Z" fill="#FFB30E"/>
</g>
<defs>
<filter id="filter0_d_401_1270" x="0.25" y="0.75" width="21.5" height="26.1406" filterUnits="userSpaceOnUse" color-interpolation-filters="sRGB">
<feFlood flood-opacity="0" result="BackgroundImageFix"/>
<feColorMatrix in="SourceAlpha" type="matrix" values="0 0 0 0 0 0 0 0 0 0 0 0 0 0 0 0 0 0 127 0" result="hardAlpha"/>
<feOffset dy="4"/>
<feGaussianBlur stdDeviation="2"/>
<feComposite in2="hardAlpha" operator="out"/>
<feColorMatrix type="matrix" values="0 0 0 0 0 0 0 0 0 0 0 0 0 0 0 0 0 0 0.25 0"/>
<feBlend mode="normal" in2="BackgroundImageFix" result="effect1_dropShadow_401_1270"/>
<feBlend mode="normal" in="SourceGraphic" in2="effect1_dropShadow_401_1270" result="shape"/>
</filter>
</defs>
</svg>
